<svg xmlns="http://www.w3.org/2000/svg" width="132" height="30" role="img" viewBox="0 0 132 30">
    <g fill="#36546d">
        <path d="M72.3 8.3h-1v5.1h1.1c.8 0 1.4-.2 1.9-.6.4-.5.7-1 .7-1.9 0-1.8-.9-2.6-2.7-2.6z"/>
        <path d="M80.9 3.4C76.7-1 69.9-1.2 65.6 3l-.3.3-.1.1c-2.1 2.1-4.8 3.3-7.7 3.3-2.9 0-5.7-1.2-7.7-3.3C46.8.2 43.4 0 42.3 0H42c-2.9 0-5.7 1.2-7.8 3.3l-.1.1c-2.1 2.2-4.8 3.3-7.8 3.3s-5.8-1.2-7.9-3.5c-2-2.1-4.8-3.3-7.7-3.3C4.9 0 0 4.9 0 11c0 6 4.8 11 10.8 11 2.9 0 5.7-1.2 7.8-3.3 4.1-4.4 11-4.6 15.3-.4l.2.2v.1c2.1 2.2 4.9 3.4 7.8 3.4 4.5 0 7.8-3.4 7.8-3.4 4.1-4.4 11-4.5 15.3-.3l.2.2v.1c4.1 4.4 11 4.6 15.3.4 4.3-4.3 4.5-11.2.4-15.6zm-66.6 8.1c0 1.2-.3 2.2-.9 2.9-.6.7-1.5 1.1-2.4 1.1-.9 0-1.8-.4-2.5-1.1-.6-.7-.9-1.7-.9-2.9V6.6h1.8V11.5c0 .6.1 1.2.4 1.6.3.4.7.6 1.2.5.4 0 .9-.2 1.1-.5.3-.5.5-1.1.4-1.6V6.6h1.8v4.9zm29.5 3.9l-1.7-2.9-1.7 2.9h-2.2l2.7-4.5-2.5-4.3h2.2l1.6 2.6 1.5-2.6h2.2l-2.5 4.3 2.7 4.5h-2.3zM75.6 14c-.8.8-1.9 1.2-3.4 1.2h-2.7V6.5h2.8c1.4 0 2.5.4 3.3 1.2.8.8 1.1 1.8 1.1 3.2 0 1.2-.4 2.3-1.1 3.1z"/>
    </g>
</svg>
