<svg xmlns="http://www.w3.org/2000/svg" viewBox="0 0 319 200"><style>@keyframes waving{0%{transform:translate(0)}20%{transform:translate(4px,-4px)}40%{transform:translate(4px,4px)}60%{transform:translate(-4px,4px)}80%{transform:translate(-4px,-4px)}}@keyframes waving_long{0%{transform:translate(0)}20%{transform:translate(6px,-6px)}40%{transform:translate(6px,6px)}60%{transform:translate(-6px,6px)}80%{transform:translate(-6px,-6px)}}@keyframes waving_short{0%{transform:translate(0)}20%{transform:translate(1px,-1px)}40%{transform:translate(1px,1px)}60%{transform:translate(-1px,1px)}80%{transform:translate(-1px,-1px)}}@keyframes blinking{0%{opacity:1}50%{opacity:.1}}.base-color{fill:#b4afff}.base-color-high{fill:#7168ff}.accent-color-high{fill:#00c9bd}.accent-color-low{fill:#e1f9ef}.white{fill:#f7fcff}.black{fill:#1d3344}.warning{fill:#ffb200}.waving,.waving-long,.waving-short{animation-direction:alternate;animation-iteration-count:infinite;animation-timing-function:linear;transform-origin:center center}.waving{animation-name:waving;animation-duration:4s}.waving-long{animation-name:waving_long;animation-duration:6s}.waving-short{animation-name:waving_short;animation-duration:2s}.blinking{animation:blinking infinite both}.blinking-short{animation-duration:1s}.blinking-long{animation-delay:1s;animation-duration:2s}</style><path id="space_blob" d="M134.1 32.8c20.4-.7 39.8-6.8 58.4-13.5s36.9-14.2 56.8-17.7c12.8-2.3 27.4-2.6 37.8 3.8 9.9 6.2 13.1 16.8 14.9 26.7 1.3 7.4 2.1 15.2-1.5 22.2-2.5 4.8-6.8 8.9-9.9 13.5-10.5 16.1-3.1 35.9 8.3 51.7 5.4 7.4 11.6 14.4 15.7 22.2s6 16.9 2.4 24.9c-3.6 7.9-12.1 13.9-21.4 18.1-18.8 8.5-41 10.9-62.6 12.3-47.8 3.1-95.9 1.7-143.9.4-17.7-.5-35.6-1-53-3.5-9.7-1.4-19.7-3.7-26.7-9.1-8.9-6.9-11.1-18.7-5.1-27.3 10-14.6 37.8-18.2 44.8-33.8 3.9-8.6-.1-18.2-5.7-26.1C31.3 80.2 11.1 65.2 10 45.7c-.7-13.4 9-26.9 24-33.2 15.7-6.7 37.5-5.8 49.1 5.2 12 11.3 33 15.6 51 15.1z" class="accent-color-low"/><path d="M65.6 41.8c-.6-.2-.8-.9-.7-1.5v-.1c0-.3-.1-.5-.4-.6s-.5 0-.7.2c0 0 0 .1-.1.1-.2.6-.9.8-1.4.7h-.1c-.3 0-.5.1-.6.4-.1.3 0 .5.2.7 0 0 .1 0 .1.1.6.2.8.9.7 1.5v.1c0 .3.1.5.4.6.2.1.5 0 .7-.2 0 0 0-.1.1-.1.2-.6.9-.8 1.4-.7h.1c.3 0 .5-.1.6-.4.1-.2 0-.5-.2-.7 0 0 0-.1-.1-.1zM227 139.7c-.6-.2-.8-.9-.7-1.5v-.1c0-.3-.1-.5-.4-.6-.2-.1-.5 0-.7.2 0 0 0 .1-.1.1-.2.6-.9.8-1.4.7h-.1c-.3 0-.5.1-.6.4s0 .5.2.7c0 0 .1 0 .1.1.6.3.8.9.7 1.5v.1c0 .3.1.5.4.6.3.1.5 0 .7-.2 0 0 0-.1.1-.1.2-.6.9-.8 1.4-.7h.1c.3 0 .5-.1.6-.4.1-.3 0-.5-.2-.7 0-.1 0-.1-.1-.1zM48.9 185c-.6-.3-.8-.9-.7-1.5v-.1c0-.3-.1-.5-.4-.6-.2-.1-.5 0-.7.2 0 0 0 .1-.1.1-.2.6-.9.8-1.4.7h-.1c-.3 0-.5.1-.6.4-.1.3 0 .5.2.7 0 0 .1 0 .1.1.6.3.8.9.7 1.5v.1c0 .3.1.5.4.6.3.1.5 0 .7-.2 0 0 0-.1.1-.1.3-.6.9-.8 1.5-.7h.1c.3 0 .5-.1.6-.4.1-.3 0-.5-.2-.7-.1-.1-.2-.1-.2-.1zM31.5 79.1c-.6-.2-.8-.9-.7-1.5v-.1c0-.3-.1-.5-.4-.6s-.5 0-.7.2c0 0 0 .1-.1.1-.3.6-.9.8-1.5.7H28c-.3 0-.6.2-.6.5-.1.3.1.6.3.7.6.2.8.9.7 1.5v.1c0 .3.1.5.4.6.2.1.5 0 .7-.2 0 0 0-.1.1-.1.2-.6.9-.8 1.5-.7h.1c.3 0 .5-.1.6-.4.1-.2 0-.5-.3-.8zm192.6-53.4c-.6-.2-.8-.9-.7-1.4v-.1c0-.3-.1-.5-.4-.6-.2-.1-.5 0-.7.2 0 0 0 .1-.1.1-.2.5-.9.8-1.4.6h-.1c-.3-.1-.6.1-.7.4-.1.3 0 .6.3.7 0 0 .1 0 .1.1.5.2.8.9.6 1.4v.1c0 .3.1.5.4.6.3.1.5 0 .7-.2 0 0 0-.1.1-.1.2-.5.9-.8 1.4-.6h.1c.3 0 .5-.1.6-.4.1-.2 0-.5-.2-.7.1 0 0-.1 0-.1z" id="exagonal_stars"/><g id="cross_stars" class="warning blinking blinking-short"><path d="M57.9 105.6h1v5.5h-1z"/><path d="M60.9 107.9v.9h-5.1v-.9zm226-27.9h1v5.5h-1z"/><path d="M289.9 82.3v1h-5.1v-1zm-35 86.9h1v5.5h-1z"/><path d="M257.9 171.4v1h-5.1v-1z"/></g><g id="round_stars" class="base-color blinking blinking-long"><ellipse cx="252.5" cy="49.4" rx="1.8" ry="1.8"/><ellipse cx="24.9" cy="27.5" rx="1.8" ry="1.8"/><ellipse cx="82.3" cy="137.8" rx="1.8" ry="1.8"/><ellipse cx="199.3" cy="185.2" rx="3.1" ry="3.1"/><ellipse cx="208.4" cy="174.5" rx="1.6" ry="1.6"/></g><g id="spaceship_sx_top" class="waving"><linearGradient id="spaceship_sx_top_porthole_sd" x1="-293.887" x2="-293.887" y1="13.128" y2="12.128" gradientTransform="rotate(-45 -3505.066 -7901.37) scale(22.5998 17.6377)" gradientUnits="userSpaceOnUse"><stop offset="0" stop-color="#00c9bd" stop-opacity=".25"/><stop offset=".5" stop-color="#00c9bd" stop-opacity=".15"/><stop offset="1" stop-color="#00c9bd" stop-opacity=".1"/></linearGradient><path fill="url(#spaceship_sx_top_porthole_sd)" d="M16.1 55.8c4.4-4.4 10.8-5.2 14.2-1.8 3.4 3.4 2.7 9.8-1.8 14.2S17.8 73.5 14.3 70c-3.4-3.4-2.6-9.8 1.8-14.2z"/><ellipse cx="22.2" cy="62" class="accent-color-high" opacity=".65" rx="11.1" ry="8.6" transform="rotate(-45 22.166 61.995)"/><linearGradient id="spaceship_sx_top_shape_sd" x1="-288.61" x2="-288.61" y1="30.191" y2="29.191" gradientTransform="rotate(-45 -6968.815 -15823.206) scale(45.9372 11.9654)" gradientUnits="userSpaceOnUse"><stop offset="0" stop-color="#00c9bd" stop-opacity=".25"/><stop offset=".5" stop-color="#00c9bd" stop-opacity=".15"/><stop offset="1" stop-color="#00c9bd" stop-opacity=".1"/></linearGradient><path fill="url(#spaceship_sx_top_shape_sd)" d="M20.7 60.4c9-9 18.1-14.3 20.5-12s-3 11.5-12 20.5S11 83.3 8.6 80.9s3.1-11.5 12.1-20.5z"/><path d="M20.8 60.5c-8.6 8.7-13.7 17.7-11.4 20l31-31.6c-2.2-2.3-11 2.9-19.6 11.6zm8.2 8.4c8.6-8.7 13.7-17.7 11.4-20l-31 31.6c2.3 2.3 11-2.9 19.6-11.6z" class="white"/><path d="M29 68.9c8.6-8.7 13.7-17.7 11.4-20l-31 31.6c2.3 2.3 11-2.9 19.6-11.6z" class="black" opacity=".1"/><path d="M17.5 70.2l12.7-12.9c.3-.3.7-.4 1.1-.4s.8.2 1.1.4c.3.3.4.7.4 1.1 0 .4-.2.8-.4 1.1L19.6 72.3c-.3.3-.7.4-1.1.4s-.8-.2-1.1-.4c-.3-.3-.4-.7-.4-1.1s.2-.7.5-1z" class="black" opacity=".05"/><path d="M20.6 60.5c-.7.7-1.7 1-2.7.6-.9-.4-1.6-1.3-1.6-2.3s.6-2 1.5-2.4 2-.2 2.7.5c1 1 1 2.6.1 3.6z" class="base-color-high"/><path d="M19.3 59.3c-.4.4-.9.5-1.3.3-.5-.2-.8-.7-.8-1.2s.3-1 .8-1.2 1-.1 1.3.3c.5.5.5 1.3 0 1.8z" class="white"/><path d="M18.8 58.8c-.1.1-.2.1-.3.1-.1 0-.2 0-.3-.1-.2-.1-.2-.3-.2-.5.1-.2.2-.3.4-.3s.3.1.4.3.1.4 0 .5zm.3 1.5l1.2-1.3c.1.1.2.3.2.5s-.1.4-.2.5l-.2.2c-.1.1-.3.2-.5.3-.2 0-.4-.1-.5-.2z" class="black"/><path d="M19.3 60l.4.1-.1-.3zm.5-.5l.4.1-.1-.3z" class="white"/></g><g id="spaceship_dx_top" class="waving"><linearGradient id="spaceship_dx_top_porthole_sd" x1="-361.911" x2="-360.893" y1="33.786" y2="33.786" gradientTransform="matrix(2.0402 -5.942 7.7526 2.6619 758.138 -2229.003)" gradientUnits="userSpaceOnUse"><stop offset="0" stop-color="#00c9bd" stop-opacity=".25"/><stop offset=".5" stop-color="#00c9bd" stop-opacity=".15"/><stop offset="1" stop-color="#00c9bd" stop-opacity=".1"/></linearGradient><path fill="url(#spaceship_dx_top_porthole_sd)" d="M278.5 8c.6-1.6 2.8-2.4 4.9-1.6 2.1.7 3.4 2.7 2.9 4.3-.6 1.6-2.8 2.4-4.9 1.6-2.1-.8-3.4-2.7-2.9-4.3z"/><ellipse cx="282.4" cy="9.3" class="accent-color-high" opacity=".65" rx="3.1" ry="4" transform="rotate(-71.053 282.434 9.284)"/><linearGradient id="spaceship_dx_top_shape_sd" x1="-398.743" x2="-397.726" y1="4.735" y2="4.735" gradientTransform="matrix(1.3845 -4.0324 15.7592 5.411 759.132 -1622.095)" gradientUnits="userSpaceOnUse"><stop offset="0" stop-color="#00c9bd" stop-opacity=".25"/><stop offset=".5" stop-color="#00c9bd" stop-opacity=".15"/><stop offset="1" stop-color="#00c9bd" stop-opacity=".1"/></linearGradient><path fill="url(#spaceship_dx_top_shape_sd)" d="M274.1 7.8c.4-1.1 4.2-.8 8.6.7s7.6 3.6 7.2 4.7-4.2.8-8.6-.7-7.6-3.5-7.2-4.7z"/><path d="M282.7 8.6c-4.2-1.4-7.9-1.7-8.3-.6l15.2 5.1c.4-1.1-2.7-3.1-6.9-4.5z" class="white"/><path d="M281.3 12.5c4.2 1.4 7.9 1.7 8.3.6L274.4 8c-.4 1.1 2.7 3.1 6.9 4.5z" class="white"/><path d="M281.3 12.5c4.2 1.4 7.9 1.7 8.3.6L274.4 8c-.4 1.1 2.7 3.1 6.9 4.5z" class="black" opacity=".1"/><path d="M279 9l6.2 2.1c.1 0 .3.1.3.3s.1.3 0 .4c-.1.3-.4.4-.7.3l-6.2-2.1c-.1 0-.3-.1-.3-.3-.1-.1-.1-.3 0-.4 0-.1.1-.2.3-.3h.4z" class="black" opacity=".05"/><path d="M282.7 8.5c-.4-.1-.6-.4-.6-.8s.2-.7.5-.9c.3-.2.7-.1 1 .1s.4.6.3 1c-.3.5-.8.8-1.2.6z" class="base-color-high"/><path d="M282.8 7.9c-.2-.1-.4-.3-.3-.6.1-.2.3-.4.6-.3.2.1.4.3.3.6 0 .1-.1.2-.2.3h-.4z" class="white"/><path d="M282.9 7.7c-.1 0-.1-.1-.1-.2 0 0 0-.1.1-.1h.1c.1 0 .1.1.1.2 0 0 0 .1-.1.1h-.1zm-.4.3l.6.2c0 .1-.1.1-.1.2h-.3c-.2-.1-.3-.3-.2-.4z" class="black"/><path d="M282.6 8v.2l.1-.1zm.2.1l.1.1.1-.1z" class="white"/></g><g id="spaceship_top" class="waving-short"><linearGradient id="spaceship_top_porthole_sd" x1="-264.785" x2="-264.785" y1="31.409" y2="30.389" gradientTransform="matrix(15.1746 0 0 11.3265 4213.6 -302.442)" gradientUnits="userSpaceOnUse"><stop offset="0" stop-color="#00c9bd" stop-opacity=".25"/><stop offset=".5" stop-color="#00c9bd" stop-opacity=".15"/><stop offset="1" stop-color="#00c9bd" stop-opacity=".1"/></linearGradient><ellipse cx="195.6" cy="48.6" fill="url(#spaceship_top_porthole_sd)" rx="7.6" ry="5.7"/><ellipse cx="195.5" cy="48.6" class="accent-color-high" opacity=".65" rx="7.4" ry="5.5"/><linearGradient id="spaceship_top_shape_sd" x1="-274.294" x2="-274.294" y1="57.175" y2="56.155" gradientTransform="matrix(30.8495 0 0 7.6791 8657.435 -385.396)" gradientUnits="userSpaceOnUse"><stop offset="0" stop-color="#00c9bd" stop-opacity=".25"/><stop offset=".5" stop-color="#00c9bd" stop-opacity=".15"/><stop offset="1" stop-color="#00c9bd" stop-opacity=".1"/></linearGradient><ellipse cx="195.6" cy="51" fill="url(#spaceship_top_shape_sd)" rx="15.4" ry="3.8"/><path d="M195.6 47.2c-8.2 0-14.9 1.7-14.9 3.8h29.7c.1-2.1-6.6-3.8-14.8-3.8zm0 7.6c8.2 0 14.9-1.7 14.9-3.8h-29.7c-.1 2.1 6.6 3.8 14.8 3.8z" class="white"/><path d="M195.6 54.8c8.2 0 14.9-1.7 14.9-3.8h-29.7c-.1 2.1 6.6 3.8 14.8 3.8z" class="black" opacity=".1"/><path d="M189.5 50.1h12.1c.3 0 .5.1.7.3s.3.4.3.7-.1.5-.3.7-.4.3-.7.3h-12.1c-.6 0-1-.4-1-1s.4-1 1-1z" class="black" opacity=".05"/><path d="M195.5 47.1c-.7 0-1.3-.4-1.6-.9-.3-.6-.1-1.3.3-1.8.5-.5 1.2-.6 1.8-.4s1 .8 1 1.5c0 .4-.2.8-.5 1.1-.1.4-.5.5-1 .5z" class="base-color-high"/><path d="M195.5 46c-.3 0-.6-.2-.8-.5s-.1-.6.2-.9.6-.3.9-.2.5.4.5.7c0 .2-.1.4-.2.6-.2.2-.4.3-.6.3z" class="white"/><path d="M195.4 45.5c-.1 0-.2-.1-.3-.2 0-.1 0-.2.1-.3s.2-.1.3-.1.2.1.2.3-.1.3-.3.3zm-.5.9h1.2c0 .1-.1.2-.2.3-.1.1-.2.1-.4.1h-.1c-.3 0-.5-.2-.5-.4z" class="black"/><path d="M195.1 46.3l.1.3.2-.3zm.5 0l.1.3.1-.3z" class="white"/></g><g id="spaceship_middle_up" class="waving-long"><linearGradient id="spaceship_middle_up_porthole_sd" x1="-272.539" x2="-272.539" y1="71.866" y2="70.905" gradientTransform="matrix(7.786 -2.4072 2.0919 6.7663 2095.665 -1051.576)" gradientUnits="userSpaceOnUse"><stop offset="0" stop-color="#00c9bd" stop-opacity=".25"/><stop offset=".5" stop-color="#00c9bd" stop-opacity=".15"/><stop offset="1" stop-color="#00c9bd" stop-opacity=".1"/></linearGradient><path fill="url(#spaceship_middle_up_porthole_sd)" d="M122.3 85.2c2.2-.7 4.4.3 4.9 2.2.6 1.9-.7 3.9-2.8 4.6-2.2.7-4.4-.3-4.9-2.2-.6-1.9.7-3.9 2.8-4.6z"/><ellipse cx="123.3" cy="88.6" class="accent-color-high" opacity=".65" rx="4" ry="3.5" transform="rotate(-17.181 123.315 88.606)"/><linearGradient id="spaceship_middle_up_shape_sd" x1="-278.102" x2="-278.102" y1="115.644" y2="114.627" gradientTransform="matrix(15.8209 -4.8913 1.4305 4.627 4358.468 -1804.448)" gradientUnits="userSpaceOnUse"><stop offset="0" stop-color="#00c9bd" stop-opacity=".25"/><stop offset=".5" stop-color="#00c9bd" stop-opacity=".15"/><stop offset="1" stop-color="#00c9bd" stop-opacity=".1"/></linearGradient><path fill="url(#spaceship_middle_up_shape_sd)" d="M123.1 87.7c4.4-1.4 8.2-1.4 8.6-.1s-2.8 3.4-7.2 4.8-8.2 1.4-8.6.1 2.8-3.4 7.2-4.8z"/><path d="M123.2 87.8c-4.2 1.5-7.3 3.7-6.9 4.9l15.1-5.3c-.4-1.3-4.1-1.1-8.2.4z" class="white"/><path d="M124.4 92.3c4.2-1.5 7.3-3.7 6.9-4.9l-15.1 5.3c.4 1.2 4 1.1 8.2-.4z" class="white"/><path d="M124.4 92.3c4.2-1.5 7.3-3.7 6.9-4.9l-15.1 5.3c.4 1.2 4 1.1 8.2-.4z" class="black" opacity=".1"/><path d="M120.5 90.6l6.2-2.2c.3-.1.6.1.7.4v.5c-.1.1-.2.3-.3.3l-6.1 2.2h-.4c-.1-.1-.2-.2-.3-.4-.2-.4-.1-.7.2-.8z" class="black" opacity=".05"/><path d="M123.1 87.7c-.3.1-.7 0-1-.3-.2-.3-.3-.8-.1-1.1.2-.4.5-.6.9-.5.4 0 .7.3.8.7.1.2.1.5 0 .8-.2.1-.4.3-.6.4z" class="base-color-high"/><path d="M122.9 87c-.2.1-.4 0-.5-.2s-.1-.4-.1-.6c.1-.2.3-.3.4-.3.2 0 .3.2.4.4.2.4 0 .6-.2.7z" class="white"/><path d="M122.8 86.8c-.1 0-.2 0-.2-.1v-.2s.1-.1.2-.1.1.1.1.1c0 .1 0 .2-.1.3zm-.2.5l.6-.2v.2c0 .1-.1.1-.2.1h-.3c-.1 0 0 0-.1-.1z" class="black"/><path d="M122.8 87.3l.1.1v-.1zm.2-.1l.1.1v-.1z" class="white"/></g><g id="spaceship_middle_down" class="waving"><linearGradient id="spaceship_middle_down_porthole_sd" x1="-295.635" x2="-294.637" y1="-15.885" y2="-15.885" gradientTransform="matrix(11.2576 -43.6242 55.3304 14.2785 4360.034 -12510.524)" gradientUnits="userSpaceOnUse"><stop offset="0" stop-color="#00c9bd" stop-opacity=".25"/><stop offset=".5" stop-color="#00c9bd" stop-opacity=".15"/><stop offset="1" stop-color="#00c9bd" stop-opacity=".1"/></linearGradient><path fill="url(#spaceship_middle_down_porthole_sd)" d="M130.6 131.8c3.1-12 18-18.6 33.3-14.7s25.1 16.9 22 29-18 18.6-33.3 14.7c-15.2-4-25.1-16.9-22-29z"/><ellipse cx="158.2" cy="138.6" class="accent-color-high" opacity=".65" rx="22" ry="28" transform="rotate(-75.529 158.152 138.562)"/><linearGradient id="spaceship_middle_down_shape_sd" x1="-301.155" x2="-300.157" y1="-19.698" y2="-19.698" gradientTransform="matrix(7.6336 -29.581 112.4861 29.0281 4667.184 -8175.218)" gradientUnits="userSpaceOnUse"><stop offset="0" stop-color="#00c9bd" stop-opacity=".25"/><stop offset=".5" stop-color="#00c9bd" stop-opacity=".15"/><stop offset="1" stop-color="#00c9bd" stop-opacity=".1"/></linearGradient><path fill="url(#spaceship_middle_down_shape_sd)" d="M99.7 133.5c2.1-8.2 29-8.3 60.1-.3s54.5 21.1 52.4 29.3-29 8.3-60.1.3-54.5-21.1-52.4-29.3z"/><path d="M159.7 133.6c-29.9-7.8-55.8-7.7-57.9.3l108.4 28.3c2-7.9-20.6-20.8-50.5-28.6zm-7.4 29c29.9 7.8 55.8 7.7 57.9-.3L101.8 134c-2.1 8 20.5 20.8 50.5 28.6z" class="white"/><path d="M152.3 162.6c29.9 7.8 55.8 7.7 57.9-.3L101.8 134c-2.1 8 20.5 20.8 50.5 28.6z" class="black" opacity=".1"/><path d="M134.5 138.8l44.2 11.5c2 .5 3.3 2.6 2.7 4.7-.5 2.1-2.6 3.3-4.6 2.8l-44.2-11.5c-1-.3-1.8-.9-2.3-1.8s-.7-1.9-.4-2.9.9-1.8 1.8-2.4c.8-.5 1.9-.7 2.8-.4z" class="black" opacity=".05"/><path d="M159.6 133.1c-3.2-.8-5.2-4.3-4.3-7.7.9-3.4 4.2-5.5 7.4-4.6 3.2.8 5.1 4.3 4.3 7.7-.9 3.4-4.2 5.5-7.4 4.6z" class="base-color-high"/><path d="M160.5 128.7c-1.7-.4-2.7-2.2-2.3-3.9.4-1.7 2.1-2.7 3.8-2.3 1.7.4 2.7 2.2 2.3 3.9-.5 1.7-2.2 2.7-3.8 2.3z" class="white"/><path d="M160.7 126.9c-.6-.2-.9-.8-.8-1.4.2-.6.8-1 1.3-.8.6.2.9.8.8 1.4-.1.3-.3.5-.5.7s-.5.2-.8.1zm-2.8 2.5l4.3 1.1c-.3 1-1.4 1.6-2.3 1.3l-.5-.1c-1-.2-1.7-1.2-1.5-2.3z" class="black"/><path d="M158.8 129.7l.2 1 .7-.8zm1.8.4l.2 1 .6-.8z" class="white"/></g><g id="spaceship_sx_bottom" class="waving-short"><linearGradient id="spaceship_sx_bottom_porthole_sd" x1="-329.968" x2="-330.956" y1="3.433" y2="3.433" gradientTransform="matrix(2.3892 -11.3668 14.7647 3.1033 814.028 -3571.95)" gradientUnits="userSpaceOnUse"><stop offset="0" stop-color="#00c9bd" stop-opacity=".25"/><stop offset=".5" stop-color="#00c9bd" stop-opacity=".15"/><stop offset="1" stop-color="#00c9bd" stop-opacity=".1"/></linearGradient><path fill="url(#spaceship_sx_bottom_porthole_sd)" d="M68 192.4c.7-3.1 4.5-5 8.6-4.1s6.8 4.1 6.2 7.2-4.5 5-8.6 4.1-6.9-4.1-6.2-7.2z"/><ellipse cx="75.4" cy="194" class="accent-color-high" opacity=".65" rx="5.7" ry="7.4" transform="rotate(-78.13 75.369 194.018)"/><linearGradient id="spaceship_sx_bottom_shape_sd" x1="-352.296" x2="-353.284" y1="-10.199" y2="-10.199" gradientTransform="matrix(1.6199 -7.7069 30.0161 6.309 953.158 -2461.786)" gradientUnits="userSpaceOnUse"><stop offset="0" stop-color="#00c9bd" stop-opacity=".25"/><stop offset=".5" stop-color="#00c9bd" stop-opacity=".15"/><stop offset="1" stop-color="#00c9bd" stop-opacity=".1"/></linearGradient><path fill="url(#spaceship_sx_bottom_shape_sd)" d="M60.8 188.4c.4-2.1 7.5-2.4 15.8-.7s14.6 4.9 14.2 7-7.5 2.4-15.8.7-14.6-4.9-14.2-7z"/><path d="M75.1 195.3c8 1.7 14.8 1.3 15.3-.8l-29-6c-.5 2.1 5.7 5.2 13.7 6.8z" class="white"/><path d="M76.7 187.8c-8-1.7-14.8-1.3-15.3.8l29 6c.4-2.1-5.7-5.2-13.7-6.8z" class="white"/><path d="M76.7 187.8c-8-1.7-14.8-1.3-15.3.8l29 6c.4-2.1-5.7-5.2-13.7-6.8z" class="black" opacity=".1"/><path d="M81.6 193.7l-11.8-2.4c-.5-.1-.9-.6-.8-1.2.1-.3.2-.5.4-.6.2-.1.5-.2.8-.1l11.8 2.4c.5.1.9.6.8 1.2-.1.3-.2.5-.4.6s-.5.2-.8.1z" class="black" opacity=".05"/><path d="M75.1 195.4c.7.1 1.2.6 1.4 1.3.1.7-.1 1.3-.7 1.7s-1.3.4-1.9 0-.8-1-.7-1.7c.2-.8 1-1.4 1.9-1.3z" class="base-color-high"/><path d="M74.9 196.6c.3.1.6.3.6.6.1.3-.1.7-.4.8-.3.2-.6.2-.9 0s-.4-.5-.3-.8c0-.2.2-.4.4-.5s.4-.1.6-.1z" class="white"/><path d="M74.9 197.1c.2 0 .3.2.2.3 0 .2-.2.3-.3.2-.2 0-.3-.2-.2-.3 0-.1.1-.1.1-.2s.1 0 .2 0zm.7-.7l-1.2-.2c0-.1.1-.2.2-.3s.2-.1.4-.1h.1c.1 0 .2.1.3.2.1.1.2.3.2.4z" class="black"/><path d="M75.3 196.3v-.2l-.2.2zm-.4-.1l-.1-.2-.2.2z" class="white"/></g><g id="spaceship_dx_bottom" class="waving-short"><linearGradient id="spaceship_dx_bottom_porthole_sd" x1="-293.758" x2="-292.752" y1="-2.644" y2="-2.644" gradientTransform="rotate(-45 -3127.697 -8807.3) scale(23.9414 30.6766)" gradientUnits="userSpaceOnUse"><stop offset="0" stop-color="#00c9bd" stop-opacity=".25"/><stop offset=".5" stop-color="#00c9bd" stop-opacity=".15"/><stop offset="1" stop-color="#00c9bd" stop-opacity=".1"/></linearGradient><path fill="url(#spaceship_dx_bottom_porthole_sd)" d="M278 106c4.7-4.7 13.3-3.6 19.3 2.4s7.1 14.6 2.4 19.3-13.3 3.6-19.3-2.4-7.1-14.7-2.4-19.3z"/><ellipse cx="288.9" cy="116.6" class="accent-color-high" opacity=".65" rx="11.7" ry="15" transform="rotate(-45 288.876 116.582)"/><linearGradient id="spaceship_dx_bottom_shape_sd" x1="-298.377" x2="-297.385" y1="-13.186" y2="-13.186" gradientTransform="rotate(-45 -1137.565 -6533.369) scale(16.2312 62.3657)" gradientUnits="userSpaceOnUse"><stop offset="0" stop-color="#00c9bd" stop-opacity=".25"/><stop offset=".5" stop-color="#00c9bd" stop-opacity=".15"/><stop offset="1" stop-color="#00c9bd" stop-opacity=".1"/></linearGradient><path fill="url(#spaceship_dx_bottom_shape_sd)" d="M263.3 98.3c3.2-3.2 15.6 4.1 27.8 16.3 12.2 12.2 19.5 24.6 16.3 27.8s-15.6-4.1-27.8-16.3-19.5-24.6-16.3-27.8z"/><path d="M290.9 114.7C279.2 103 267.2 95.9 264.1 99l42.4 42.7c3.1-3.1-3.9-15.2-15.6-27z" class="white"/><path d="M279.7 126c11.7 11.8 23.7 18.8 26.8 15.7L264.1 99c-3.1 3.1 3.9 15.2 15.6 27z" class="white"/><path d="M279.7 126c11.7 11.8 23.7 18.8 26.8 15.7L264.1 99c-3.1 3.1 3.9 15.2 15.6 27z" class="black" opacity=".1"/><path d="M277.9 110.2l17.3 17.4c.8.8.8 2.1 0 2.9-.4.4-.9.6-1.4.6s-1.1-.2-1.4-.6l-17.3-17.4c-.4-.4-.6-.9-.6-1.5 0-.5.2-1.1.6-1.5s.9-.6 1.4-.6c.5.1 1 .3 1.4.7z" class="black" opacity=".05"/><path d="M291 114.5c-1-.9-1.3-2.4-.8-3.7s1.7-2.1 3.1-2.2 2.6.8 3.1 2.1.3 2.7-.7 3.7c-.6.6-1.4 1-2.3 1-.9 0-1.8-.3-2.4-.9z" class="base-color-high"/><path d="M292.6 112.7c-.5-.5-.6-1.2-.4-1.8.3-.6.9-1 1.6-1s1.3.4 1.6 1c.3.6.1 1.4-.4 1.8-.7.6-1.8.6-2.4 0z" class="white"/><path d="M293.2 111.9c-.2-.2-.2-.6 0-.9.2-.2.6-.2.8 0 .2.2.2.6 0 .9-.1.1-.3.2-.4.2-.2 0-.3-.1-.4-.2zm-2 .4l1.7 1.7c-.4.4-1 .3-1.4-.1l-.2-.2c-.4-.3-.4-.9-.1-1.4z" class="black"/><path d="M291.6 112.7l-.2.5.5-.2zm.7.7l-.2.5.5-.2z" class="white"/></g></svg>