<svg xmlns="http://www.w3.org/2000/svg" viewBox="0 0 558 337"><style>@keyframes wobbling{0%{transform-origin:215px 215px}15%{transform:rotate(6deg)}30%{transform:rotate(-6deg)}45%{transform:rotate(3.6deg)}60%{transform:rotate(-2.4deg)}75%{transform:rotate(1.2deg)}}@keyframes scaling{0%{transform-origin:center center;transform:scale(0);opacity:1}}@keyframes bouncing{0%{transform-origin:center center}50%{transform:translate(0,0)}}.base-color{fill:#b4afff}.base-color-high{fill:#7168ff}.accent-color-high{fill:#00c9bd}.accent-color-low{fill:#e1f9ef}.white{fill:#f7fcff}.black{fill:#1d3344}.warning{fill:#ffb200}.wobbling{animation:wobbling 3s infinite}.scaling{animation:scaling 2s 2s cubic-bezier(.25,.46,.45,.94) infinite both}.bouncing{animation:bouncing .5s ease-in-out infinite alternate both;transform:translate(-4px,8px)}</style><path id="space_blob" d="M187.7 11.1C204.6-1.1 229.1-1.4 251 2c68.8 10.7 127.8 50.9 177.8 94.5 18.1 15.8 35.8 32.6 46.5 52.9 21.8 41.3 8.5 93.9-30.8 121.8-13.4 9.5-29.1 16.2-45.1 22-28.4 10.2-58.7 17.6-89.8 17.4-22.1-.2-44.1-4.2-65.6-9.5-60-14.7-117.7-39.3-164.5-75.9-20.5-16.1-39.4-35.3-46.1-58.5s2.1-50.8 25.8-61.6c9.9-4.5 21.2-5.8 32.3-6.9 16.3-1.7 32.9-3.4 48.1-8.8 15.6-5.6 34.7-17.5 33.4-33.7-1.2-17.3-2.2-32.5 14.7-44.6z" class="accent-color-low"/><g id="gru"><path d="M216.9 146l-.2-35h-2.4l.2 35.2-18.9 8.8 5.1-1 4.4-.9 10.8-4.8 13.3 5.4L240 157z" class="black" opacity=".35"/><path d="M390.3 334.6V111.2h20c.8 0 1.6-.4 2.2-1s1-1.4 1-2.2V88.8c0-1.6-1.4-3.1-3.1-3.1H211.2c-.6 0-1 .2-1.4.4l-35.1 19.2c-1.2.6-1.8 2-1.4 3.5.4 1.4 1.6 2.4 3.1 2.4h169.9v225.6l11.3-.6 26-1.3 6.7-.3zM214.1 92h22.1v13.1h-22.1V92zm28.3 0h22.3v13.1h-22.3V92zm28.6 0h22.1v13.1H271V92zm28.4 0h22.1v13.1h-22.1V92zm28.4 0h22.3v13.1h-22.3V92zm35.8 35.1L352 138.7v-23.5l11.6 11.9zm-7-15.9h22.9L368 122.6l-11.4-11.4zm0 31.8l11.4-11.4 11.4 11.4h-22.8zm22.9 6.2L368 160.6l-11.4-11.4h22.9zm-27.6 4.2l11.6 11.6-11.6 11.6v-23.2zm4.7 27.6l11.4-11.4 11.4 11.4h-22.8zm22.9 6.1L368 198.5l-11.4-11.4h22.9zm-27.6 4.3l11.6 11.6-11.6 11.6v-23.2zm4.7 27.5l11.4-11.4 11.4 11.4h-22.8zm22.9 6.1L368 236.4 356.6 225h22.9zm-27.6 4.3l11.6 11.6-11.6 11.6v-23.2zm4.7 27.5l11.4-11.4 11.4 11.4h-22.8zm22.9 6.2L368 274.4 356.6 263h22.9zm-27.6 4.2l11.6 11.6-11.6 11.6v-23.2zm16.1 16.2l11.4 11.4h-22.9l11.5-11.4zm-16.1 21.8l11.6 11.6-11.6 11.6v-23.2zm4.7-4.3h22.9L368 312.3l-11.4-11.4zm27.6 4.3v23.5L372.5 317l11.7-11.8zm-11.9-26.3l11.6-11.6v23.5l-11.6-11.9zm0-38l11.6-11.6v23.5l-11.6-11.9zm0-37.9l11.6-11.6v23.3L372.3 203zm0-37.9l11.6-11.6V177l-11.6-11.9zm0-38l11.6-11.6V139l-11.6-11.9zm-16.1-22.2V91.8h22.1v13.1h-22.1zM207.7 94.1v10.8h-19.8l19.8-10.8zm145 242.3l15.3-15.3 13.9 13.9-29.2 1.4zm54.6-231.5h-22.5V91.8h22.5v13.1z" class="base-color"/></g><path d="M99.7 60c-1.2-.4-1.6-1.8-1.4-3.1v-.2c0-.6-.2-1-.8-1.2-.6-.2-1 0-1.4.4 0 0 0 .2-.2.2-.4 1.2-1.8 1.6-2.9 1.4h-.2c-.6 0-1 .2-1.2.8s0 1 .4 1.4c0 0 .2 0 .2.2 1.2.4 1.6 1.8 1.4 3.1v.2c0 .6.2 1 .8 1.2.4.2 1 0 1.4-.4 0 0 0-.2.2-.2.4-1.2 1.8-1.6 2.9-1.4h.2c.6 0 1-.2 1.2-.8s0-1-.4-1.4c.1-.2-.2-.2-.2-.2zM429 259.5c-1.2-.4-1.6-1.8-1.4-3.1v-.2c0-.6-.2-1-.8-1.2-.4-.2-1 0-1.4.4 0 0 0 .2-.2.2-.4 1.2-1.8 1.6-2.9 1.4h-.3c-.6 0-1 .2-1.2.8-.2.6 0 1 .4 1.4 0 0 .2 0 .2.2 1.2.6 1.6 1.8 1.4 3.1v.2c0 .6.2 1 .8 1.2.6.2 1 0 1.4-.4 0 0 0-.2.2-.2.4-1.2 1.8-1.6 2.9-1.4h.2c.6 0 1-.2 1.2-.8.2-.6 0-1-.4-1.4.1-.2-.1-.2-.1-.2zM55.3 285.6c-1.2-.6-1.6-1.8-1.4-3.1v-.2c0-.6-.2-1-.8-1.2s-1 0-1.4.4c0 0 0 .2-.2.2-.4 1.2-1.8 1.6-2.9 1.4h-.2c-.6 0-1 .2-1.2.8-.2.6 0 1 .4 1.4 0 0 .2 0 .2.2 1.2.6 1.6 1.8 1.4 3.1v.2c0 .6.2 1 .8 1.2s1 0 1.4-.4c0 0 0-.2.2-.2.6-1.2 1.8-1.6 3.1-1.4h.2c.6 0 1-.2 1.2-.8.2-.6 0-1-.4-1.4l-.4-.2zM8.8 133.2c-1.2-.4-1.6-1.8-1.4-3.1v-.2c0-.6-.2-1-.8-1.2-.4-.2-1 0-1.4.4 0 0 0 .2-.2.2-.6 1.2-1.8 1.6-3.1 1.4h-.3c-.6 0-1.2.4-1.2 1s.2 1.2.6 1.4c1.2.4 1.6 1.8 1.4 3.1v.2c0 .6.2 1 .8 1.2.4.2 1 0 1.4-.4 0 0 0-.2.2-.2.4-1.2 1.8-1.6 3.1-1.4h.2c.6 0 1-.2 1.2-.8.3-.4.1-1-.5-1.6.2 0 .2 0 0 0zm414.3-106c-1.2-.4-1.6-1.8-1.4-2.9v-.2c0-.6-.2-1-.8-1.2-.4-.2-1 0-1.4.4 0 0 0 .2-.2.2-.4 1-1.8 1.6-2.9 1.2h-.2c-.6-.2-1.2.2-1.4.8s0 1.2.6 1.4c0 0 .2 0 .2.2 1 .4 1.6 1.8 1.2 2.9v.2c0 .6.2 1 .8 1.2.6.2 1 0 1.4-.4 0 0 0-.2.2-.2.4-1 1.8-1.6 2.9-1.2h.2c.6 0 1-.2 1.2-.8.2-.4 0-1-.4-1.4.2 0 0-.2 0-.2z" id="cross_stars"/><g id="round_stars" class="accent-color-high"><ellipse cx="480.8" cy="75.5" rx="3.7" ry="3.7"/><ellipse cx="214.2" cy="38.2" rx="3.7" ry="3.7"/></g><g id="top_alien"><path d="M392.3 83.8c-6.4-1.6-10.4-8.6-8.6-15.3 1.8-6.8 8.4-11 14.7-9.2 6.4 1.6 10.2 8.6 8.6 15.3-1.8 6.8-8.4 11-14.7 9.2z" class="base-color-high"/><path d="M394.1 75c-3.4-.8-5.4-4.4-4.6-7.8s4.2-5.4 7.6-4.6 5.4 4.4 4.6 7.8c-1.1 3.4-4.5 5.4-7.6 4.6z" class="white"/><path d="M392.1 73.2c-1.2-.4-1.8-1.6-1.6-2.8.4-1.2 1.6-2 2.6-1.6s1.8 1.6 1.6 2.8c-.2.6-.6 1-1 1.4-.6.4-1.2.4-1.6.2zm-3.2 3.2l8.6 2.2c-.6 2-2.8 3.2-4.6 2.6l-1-.2c-2-.4-3.4-2.4-3-4.6z" class="black"/><path d="M390.7 77l.4 2 1.4-1.6zm3.6.8l.4 2 1.2-1.4z" class="white"/><g id="helmet"><path d="M409.9 67.2c-.6 0-.8-.6-.8-1l.2-1.7c.8-4.8-1.8-9.8-6.3-11.9v-.4c0-.4-.2-.8-.8-1l-4.9-.8c-.4 0-1 .2-1 .6v.4c-4.9.4-9.2 4-10 9l-.2 1.9c0 .4-.6.8-1 .6l-1-.2-.4 2.7 27 4.8.4-2.7-1.2-.3z" class="warning"/><path d="M404.4 66l-14.9-2.9c-.2 0-.4-.2-.4-.6 0-.2.2-.4.6-.4l14.9 2.9c.2 0 .4.2.4.6s-.2.4-.6.4m-2.2-11.5c-.2 0-.4-.2-.4-.6l.4-1.9c0-.2.2-.4.6-.4.2 0 .4.2.4.6l-.4 1.9c-.2.2-.4.4-.6.4m-6.2-1.2c-.2 0-.4-.2-.4-.6l.4-1.9c0-.2.2-.4.6-.4.2 0 .4.2.4.6l-.4 1.9c-.2.2-.4.4-.6.4m2.7 2.7c-.2 0-.4-.2-.4-.6l1-5.4c0-.2.2-.4.6-.4.2 0 .4.2.4.6l-1 5.4c-.2.4-.4.6-.6.4m6.1-2.5l-2.7 4.6 5.1-.6c-.3-1.5-1.1-3-2.4-4zm-11-2.1l.6 5.4-4.5-2.7c1-1.2 2.4-2.3 3.9-2.7z" class="black" opacity=".25"/></g></g><g id="bottom_alien"><path d="M285.5 331c-6.4-1.6-10.4-8.5-8.6-15.3 1.8-6.7 8.4-10.9 14.7-9.1 6.4 1.6 10.2 8.5 8.6 15.3-1.8 6.5-8.4 10.7-14.7 9.1z" class="base-color-high"/><path d="M287.5 320.1c-3.4-.8-5.4-4.4-4.6-7.7s4.2-5.4 7.6-4.6 5.4 4.4 4.6 7.7c-.9 3.6-4.3 5.6-7.6 4.6z" class="white"/><path d="M286.5 313.1c-1.2-.4-1.8-1.6-1.6-2.8.4-1.2 1.6-2 2.6-1.6 1.2.4 1.8 1.6 1.6 2.8-.2.6-.6 1-1 1.4s-1 .4-1.6.2zm-2 13.9c-2-1.4-2.8-3-1.6-3.8 1-.8 3.6-.4 5.6.8s2.8 3 1.8 3.8c-.6.4-1.4.6-2.4.4-1.2-.2-2.4-.6-3.4-1.2z" class="black"/><path d="M286.3 323.1v2l1.6-1.2zm2 1.2l-.2 1.9 1.7-.9z" class="white"/><g id="helmet" class="bouncing"><path d="M286.7 295.5l-1.4 2.3 22.8 14.4 1.4-2.3-.8-.4c-.4-.2-.6-.8-.4-1.2l1-1.5c2.4-4.2 1.6-9.6-1.8-13.3l.2-.4c.2-.4 0-1-.4-1.2l-4.2-2.7c-.4-.2-1-.2-1.2.2l-.2.4c-4.8-1.2-9.7.6-12.1 4.8l-.8 1.5c-.2.4-.8.6-1.2.2l-.9-.8z" class="warning"/><path d="M292.2 298.6c-.2-.2-.2-.4-.2-.6.2-.2.4-.2.6-.2l12.7 7.7c.2.2.2.4.2.6-.2.2-.4.2-.6.2l-12.7-7.7m9-7.1c-.2-.2-.2-.4-.2-.6l.8-1.7c.2-.2.4-.2.6-.2.2.2.2.4.2.6l-.8 1.7c-.2.2-.4.5-.6.2m5.3 3.2c-.2-.2-.2-.4-.2-.6l.8-1.7c.2-.2.4-.2.6-.2.2.2.2.4.2.6l-.8 1.7c-.2.2-.4.4-.6.2m-3.7.4c-.2-.2-.2-.4-.2-.6l2.6-4.8c.2-.2.4-.2.6-.2.2.2.2.4.2.6l-2.6 4.8c-.2.2-.4.4-.6.2m-3-6.1c-1.6 0-3 .6-4.4 1.2l3.4 4 1-5.2zm9.5 5.7c.8 1.5 1.2 2.9 1.2 4.6l-5-1 3.8-3.6z" class="black" opacity=".25"/></g></g><g id="spaceship_with_alien" class="wobbling"><g id="alien"><path d="M108.8 189c-3.2-6.2-.6-13.7 5.2-16.7 6-2.8 13.3-.4 16.3 6 3.2 6.2.6 13.7-5.2 16.7-6 2.9-13.3.3-16.3-6z" class="base-color-high"/><path d="M113.2 183.8c-1.4-3.2-.2-6.9 2.8-8.5 3.2-1.4 7-.2 8.4 3s.2 6.9-2.8 8.5c-3.2 1.4-6.8.2-8.4-3z" class="white"/><path d="M120.3 180.6c-.6-.2-1-.6-1.2-1.2-.4-1.2-.2-2.4 1-3s2.4-.2 2.8 1c.6 1 .2 2.4-1 3-.4.4-1 .2-1.6.2zm.8 8.2l1-.4c1.8-1 4-.2 5 1.6l-8 4c-.5-2.3.2-4.4 2-5.2z" class="black"/><path d="M122.5 192.1l-1.6-1.4-.2 2.2zm3-1.5l-1.4-1.2v1.9z" class="white"/><g id="helmet"><path d="M122.1 168.9c-.4.2-1 .4-1.2 0l-1-1.2c-3.2-3.5-8.5-4.1-12.7-2.1l-.2-.4c-.2-.4-.8-.2-1.2 0l-3.8 3.3c-.4.2-.4 1-.2 1.2l.2.4c-2.6 4.3-2.2 9.7.8 13.2l1.2 1.2c.2.4.2 1-.2 1.2l-.6.6 1.8 1.9 19.4-18.8-1.8-1.9-.5 1.4z" class="warning"/><path d="M117.8 172.4l-10.9 10.1c-.2.2-.4 0-.6 0-.2-.2 0-.4 0-.6l10.9-10.1c.2-.2.4 0 .6 0 .4.4.4.6 0 .6m-9.9-5c-.2.2-.4 0-.6 0l-1.4-1.4c-.2-.2 0-.4 0-.6.2-.2.4 0 .6 0l1.2 1.4c.2.2.4.4.2.6m-4.5 4.1c-.2.2-.4 0-.6 0l-1.2-1.4c-.2-.2 0-.4 0-.6.2-.2.4 0 .6 0l1.2 1.4c.2.2 0 .4 0 .6m3.7-.4c-.2.2-.4 0-.6 0l-3.4-4.1c-.2-.2 0-.4 0-.6.2-.2.4 0 .6 0l3.4 4.1v.6m1.6-6.4l2 4.8 2.6-4.5c-1.6-.5-3-.7-4.6-.3zm-8.1 7.5l4.3 2.7-4.5 2.1c-.4-1.5-.4-3.2.2-4.8z" class="black" opacity=".25"/></g></g><g id="spaceship"><ellipse cx="214.9" cy="196.7" class="base-color-high" rx="56.9" ry="44.3"/><path d="M166.6 202c0-24.5 25.7-44.5 57.2-44.5 9.8 0 19.6 2 28.6 5.9-10-6.7-23.3-11-37.6-11-31.6 0-57.2 20-57.2 44.5 0 16.5 11.6 30.8 28.8 38.6-12.2-7.9-19.8-20-19.8-33.5z" class="base-color"/><path d="M215.5 186.3c-63.1 0-114.1 13.5-114.1 30.2h228c0-16.7-51-30.2-113.9-30.2z" class="white"/><path d="M215.5 246.6c63.1 0 114.1-13.5 114.1-30.2H101.4c0 16.7 51 30.2 114.1 30.2z" class="white"/><path d="M215.5 246.6c63.1 0 114.1-13.5 114.1-30.2H101.4c0 16.7 51 30.2 114.1 30.2z" class="black" opacity=".1"/><path d="M168.3 209.2h93.1c4.3 0 7.8 3.5 7.8 7.8s-3.5 7.8-7.8 7.8h-93.1c-4.3 0-7.8-3.5-7.8-7.8.1-4.3 3.8-7.8 7.8-7.8z" class="black" opacity=".05"/></g></g></svg>